# xmcd
#
# Track frame offsets: 
#        150
#        10183
#        24303
#        35369
#        47341
#        58991
#        71700
#        85914
#        105573
#        119392
#        133453
#        148547
#        160435
#        174244
#        189860
#        201938
#        214089
#        226405
#        236505
#        255221
#        268690
#        278047
#        288070
#        297820
#        311949
#        321040
#        333517
#        346047
#
# Disc length: 4731 seconds
#
# Revision: 0
# Processed by: cddbd v1.5.1PL0 Copyright (c) Steve Scherf et al.
# Submitted via: ExactAudioCopy v0.95a5
#
DISCID=9612791c
DTITLE=Various Artist - Retro memories
DYEAR=1900
DGENRE=Blues
TTITLE0=Pat Boone - Love letters in the sand
TTITLE1=Andrew sisters - Rum and Coca Cola
TTITLE2=Boddy Vee - Take good are of my baby
TTITLE3=Connie Francis - Everybody's somebody's fool
TTITLE4=The Platters - Only you
TTITLE5=Buddy Holly - True love ways
TTITLE6=Dalida - Amor amor
TTITLE7=Marty Robbins - My Love
TTITLE8=Duke Ellington - Mood indigo
TTITLE9=Edit Piaf - La vie en rose
TTITLE10=Mahalia Jackson - In the upper room
TTITLE11=Frank Sinatra - Something stupid
TTITLE12=Simon and Garfunkel - The sound of silence
TTITLE13=Glenn Miller - Tuxedo junction
TTITLE14=Louis Armstrong - When the saints go marching in
TTITLE15=Paul Anka - You are my destiny
TTITLE16=Mireille Mathieu - Toi et moi
TTITLE17=Loyd Price - I gonna get married
TTITLE18=Nat King Cole - Sometimes i'm happy
TTITLE19=Juliette Greco - Paris Canaille
TTITLE20=Pat Boone - A wonderful time up there
TTITLE21=The Drifters - Night I at the movies
TTITLE22=Ricky Nelson - Never be anyone
TTITLE23=Andy Williams - Love Story
TTITLE24=Marilyn Monroe - River of no return
TTITLE25=The Platters - You're making a mistake
TTITLE26=Roy Orbison - Crying
TTITLE27=The Shadows - Man of mistery
EXTD=
EXTT0=
EXTT1=
EXTT2=
EXTT3=
EXTT4=
EXTT5=
EXTT6=
EXTT7=
EXTT8=
EXTT9=
EXTT10=
EXTT11=
EXTT12=
EXTT13=
EXTT14=
EXTT15=
EXTT16=
EXTT17=
EXTT18=
EXTT19=
EXTT20=
EXTT21=
EXTT22=
EXTT23=
EXTT24=
EXTT25=
EXTT26=
EXTT27=
PLAYORDER=
